<svg xmlns="http://www.w3.org/2000/svg" width="100" height="110" viewBox="0 0 100 110"><g fill="#1D1D1B"><path d="M53.5 59.9c.8-3 1.2-5.5 1.3-5.7l.1-.7-.7.1s-2.6.5-5.7 1.3c.8-2.9 1.2-5.4 1.3-5.7l.1-.7-.7.1c-.5.1-12.4 2.3-15.3 5.1-2.9 3-2.9 7.8 0 10.7.9.9 2 1.5 3.1 1.9.4 1.2 1 2.2 1.9 3.1.9.9 2 1.5 3.1 1.9.4 1.2 1 2.2 1.9 3.1 1.4 1.4 3.3 2.2 5.4 2.2 2 0 3.9-.8 5.3-2.2 2.8-2.8 5-14.8 5.1-15.3l.1-.7-.7.1c0 .1-2.6.6-5.6 1.4zm-15.3 6.7c.4.1.7.1 1.1.1 2 0 3.9-.8 5.4-2.2 1.4-1.4 2.7-5.1 3.6-8.5 2.3-.6 4.4-1 5.4-1.2-.5 2.6-2.5 11.8-4.7 14-1.2 1.2-2.9 1.9-4.6 1.9-1.8 0-3.4-.7-4.6-1.9-.8-.7-1.3-1.4-1.6-2.2zm15.7 7.1c-1.2 1.2-2.9 1.9-4.6 1.9-1.8 0-3.4-.7-4.6-1.9-.6-.6-1.1-1.4-1.4-2.2.4.1.7.1 1.1.1 2 0 3.9-.8 5.4-2.2 1.4-1.4 2.7-5.1 3.6-8.5 2.3-.6 4.4-1 5.4-1.2-.7 2.7-2.7 11.8-4.9 14z"/><path d="M88 84.4c5.9 0 10.6-4.8 10.6-10.6 0-4.1-2.3-7.7-5.8-9.4.3-.6.4-1.4.4-2.1 0-.8-.2-1.5-.5-2.2.3-.7.5-1.4.5-2.2 0-2.9-2.4-5.3-5.3-5.3-1.3 0-2.4.5-3.4 1.2L47.1 16.2l-.7.7 3.4 3.4L5.9 64.2l-.4-.4-.4.4-3-3-.7.7 3 3-1.9 1.9 39.1 39.1 1.9-1.9 3 3 .7-.7-3-3 .4-.4-.4-.4 43.8-44v15.2c-5.9 0-10.6 4.7-10.6 10.6 0 4 2.2 7.5 5.5 9.3-.1.4-.2.9-.2 1.3 0 1 .3 1.9.7 2.7-.5.8-.7 1.7-.7 2.7 0 2.9 2.4 5.3 5.3 5.3 5.9 0 10.6-4.8 10.6-10.6 0-5.9-4.7-10.6-10.6-10.6zM6.6 64.9L50.5 21l36.8 36.8-43.9 43.9L6.6 64.9z"/><path d="M63.9 44.4c-1.2-1.2-3.2-1.2-4.4 0-1.2 1.2-1.2 3.2 0 4.4 1.2 1.2 3.2 1.2 4.4 0 1.2-1.2 1.2-3.2 0-4.4z"/></g></svg>