<?xml version="1.0" encoding="utf-8"?>
<!-- Generator: Adobe Illustrator 16.0.0, SVG Export Plug-In . SVG Version: 6.00 Build 0)  -->
<!DOCTYPE svg PUBLIC "-//W3C//DTD SVG 1.1//EN" "http://www.w3.org/Graphics/SVG/1.1/DTD/svg11.dtd">
<svg version="1.1" id="Layer_1" xmlns="http://www.w3.org/2000/svg" xmlns:xlink="http://www.w3.org/1999/xlink" x="0px" y="0px"
	 width="100px" height="110px" viewBox="0 0 100 110" enable-background="new 0 0 100 110" xml:space="preserve">
<g>
	<path fill="#1D1D1B" d="M53.5,59.9c0.8-3,1.2-5.5,1.3-5.7l0.1-0.7l-0.7,0.1c0,0-2.6,0.5-5.7,1.3c0.8-2.9,1.2-5.4,1.3-5.7l0.1-0.7
		l-0.7,0.1c-0.5,0.1-12.4,2.3-15.3,5.1c-2.9,3-2.9,7.8,0,10.7c0.9,0.9,2,1.5,3.1,1.9c0.4,1.2,1,2.2,1.9,3.1c0.9,0.9,2,1.5,3.1,1.9
		c0.4,1.2,1,2.2,1.9,3.1c1.4,1.4,3.3,2.2,5.4,2.2l0,0c2,0,3.9-0.8,5.3-2.2c2.8-2.8,5-14.8,5.1-15.3l0.1-0.7l-0.7,0.1
		C59.1,58.6,56.5,59.1,53.5,59.9z M38.2,66.6c0.4,0.1,0.7,0.1,1.1,0.1c2,0,3.9-0.8,5.4-2.2c1.4-1.4,2.7-5.1,3.6-8.5
		c2.3-0.6,4.4-1,5.4-1.2c-0.5,2.6-2.5,11.8-4.7,14c-1.2,1.2-2.9,1.9-4.6,1.9l0,0c-1.8,0-3.4-0.7-4.6-1.9
		C39,68.1,38.5,67.4,38.2,66.6z M53.9,73.7c-1.2,1.2-2.9,1.9-4.6,1.9l0,0c-1.8,0-3.4-0.7-4.6-1.9c-0.6-0.6-1.1-1.4-1.4-2.2
		c0.4,0.1,0.7,0.1,1.1,0.1l0,0c2,0,3.9-0.8,5.4-2.2c1.4-1.4,2.7-5.1,3.6-8.5c2.3-0.6,4.4-1,5.4-1.2C58.1,62.4,56.1,71.5,53.9,73.7z"
		/>
	<path fill="#1D1D1B" d="M88,84.4c5.9,0,10.6-4.8,10.6-10.6c0-4.1-2.3-7.7-5.8-9.4c0.3-0.6,0.4-1.4,0.4-2.1c0-0.8-0.2-1.5-0.5-2.2
		c0.3-0.7,0.5-1.4,0.5-2.2c0-2.9-2.4-5.3-5.3-5.3c-1.3,0-2.4,0.5-3.4,1.2L47.1,16.2l-0.7,0.7l3.4,3.4L5.9,64.2l-0.4-0.4l-0.4,0.4
		l-3-3l-0.7,0.7l3,3l-1.9,1.9l39.1,39.1l1.9-1.9l3,3l0.7-0.7l-3-3l0.4-0.4l-0.4-0.4l43.8-44v4.6v4.4v6.2c-5.9,0-10.6,4.7-10.6,10.6
		c0,4,2.2,7.5,5.5,9.3c-0.1,0.4-0.2,0.9-0.2,1.3c0,1,0.3,1.9,0.7,2.7c-0.5,0.8-0.7,1.7-0.7,2.7c0,2.9,2.4,5.3,5.3,5.3
		c5.9,0,10.6-4.8,10.6-10.6C98.6,89.1,93.9,84.4,88,84.4z M6.6,64.9L50.5,21l36.8,36.8l-43.9,43.9L6.6,64.9z"/>
	<path fill="#1D1D1B" d="M63.9,44.4c-1.2-1.2-3.2-1.2-4.4,0c-1.2,1.2-1.2,3.2,0,4.4c1.2,1.2,3.2,1.2,4.4,0
		C65.1,47.6,65.1,45.6,63.9,44.4z"/>
</g>
</svg>
