<?xml version="1.0" encoding="utf-8"?>
<!-- Generator: Adobe Illustrator 16.0.0, SVG Export Plug-In . SVG Version: 6.00 Build 0)  -->
<!DOCTYPE svg PUBLIC "-//W3C//DTD SVG 1.1//EN" "http://www.w3.org/Graphics/SVG/1.1/DTD/svg11.dtd">
<svg version="1.1" id="Layer_1" xmlns="http://www.w3.org/2000/svg" xmlns:xlink="http://www.w3.org/1999/xlink" x="0px" y="0px"
	 width="100px" height="110px" viewBox="0 0 100 110" enable-background="new 0 0 100 110" xml:space="preserve">
<g>
	<path fill="#1D1D1B" d="M88,84.4c5.9,0,10.6-4.8,10.6-10.6c0-4.1-2.3-7.7-5.8-9.4c0.3-0.7,0.4-1.4,0.4-2.1c0-0.8-0.2-1.5-0.5-2.2
		c0.3-0.7,0.5-1.4,0.5-2.2c0-2.9-2.4-5.3-5.3-5.3c-1.3,0-2.4,0.5-3.4,1.2L47.1,16.2l-0.7,0.7l3.4,3.4L5.9,64.2l-0.4-0.4l-0.4,0.4
		l-3-3l-0.7,0.7l3,3l-1.9,1.9l39.1,39.1l1.9-1.9l3,3l0.7-0.7l-3-3l0.4-0.4l-0.4-0.4L88,58.5v4.6v4.4v6.2c-5.9,0-10.6,4.8-10.6,10.6
		c0,4,2.2,7.5,5.5,9.3c-0.1,0.4-0.2,0.9-0.2,1.3c0,1,0.3,1.9,0.7,2.7c-0.5,0.8-0.7,1.7-0.7,2.7c0,2.9,2.4,5.3,5.3,5.3
		c5.9,0,10.6-4.8,10.6-10.6C98.6,89.1,93.9,84.4,88,84.4z M6.6,64.9L50.5,21l36.8,36.8l-43.9,43.9L6.6,64.9z"/>
	<polygon fill="#1D1D1B" points="56.7,52.4 56,51.7 47.2,60.4 47.2,48.1 46.2,48.1 46.2,60.4 37.5,51.7 36.8,52.4 45.5,61.1 
		33.2,61.1 33.2,62.1 45.5,62.1 36.8,70.8 37.5,71.5 46.2,62.8 46.2,75.1 47.2,75.1 47.2,62.8 56,71.5 56.7,70.8 48,62.1 60.3,62.1 
		60.3,61.1 48,61.1 	"/>
	<path fill="#1D1D1B" d="M63.9,44.4c-1.2-1.2-3.2-1.2-4.4,0c-1.2,1.2-1.2,3.2,0,4.4c1.2,1.2,3.2,1.2,4.4,0
		C65.1,47.6,65.1,45.6,63.9,44.4z"/>
</g>
</svg>
