<svg xmlns="http://www.w3.org/2000/svg" width="100" height="110" viewBox="0 0 100 110"><g fill="#1D1D1B"><path d="M88 84.4c5.9 0 10.6-4.8 10.6-10.6 0-4.1-2.3-7.7-5.8-9.4.3-.7.4-1.4.4-2.1 0-.8-.2-1.5-.5-2.2.3-.7.5-1.4.5-2.2 0-2.9-2.4-5.3-5.3-5.3-1.3 0-2.4.5-3.4 1.2L47.1 16.2l-.7.7 3.4 3.4L5.9 64.2l-.4-.4-.4.4-3-3-.7.7 3 3-1.9 1.9 39.1 39.1 1.9-1.9 3 3 .7-.7-3-3 .4-.4-.4-.4 43.8-44v15.2c-5.9 0-10.6 4.8-10.6 10.6 0 4 2.2 7.5 5.5 9.3-.1.4-.2.9-.2 1.3 0 1 .3 1.9.7 2.7-.5.8-.7 1.7-.7 2.7 0 2.9 2.4 5.3 5.3 5.3 5.9 0 10.6-4.8 10.6-10.6 0-5.9-4.7-10.6-10.6-10.6zM6.6 64.9L50.5 21l36.8 36.8-43.9 43.9L6.6 64.9z"/><path d="M56.7 52.4l-.7-.7-8.8 8.7V48.1h-1v12.3l-8.7-8.7-.7.7 8.7 8.7H33.2v1h12.3l-8.7 8.7.7.7 8.7-8.7v12.3h1V62.8l8.8 8.7.7-.7-8.7-8.7h12.3v-1H48m15.9-16.7c-1.2-1.2-3.2-1.2-4.4 0-1.2 1.2-1.2 3.2 0 4.4 1.2 1.2 3.2 1.2 4.4 0 1.2-1.2 1.2-3.2 0-4.4z"/></g></svg>