<?xml version="1.0" encoding="utf-8"?>
<!-- Generator: Adobe Illustrator 16.0.0, SVG Export Plug-In . SVG Version: 6.00 Build 0)  -->
<!DOCTYPE svg PUBLIC "-//W3C//DTD SVG 1.1//EN" "http://www.w3.org/Graphics/SVG/1.1/DTD/svg11.dtd">
<svg version="1.1" id="Layer_1" xmlns="http://www.w3.org/2000/svg" xmlns:xlink="http://www.w3.org/1999/xlink" x="0px" y="0px"
	 width="110px" height="110px" viewBox="0 0 110 110" enable-background="new 0 0 110 110" xml:space="preserve">
<g>
	<g>
		<path fill="#878787" d="M51.8,68.4c0-5.4,9.7-19.4,9.7-19.4s9.7,14.1,9.7,19.4c0,5.4-4.4,9.7-9.7,9.7
			C56.2,78.2,51.8,73.8,51.8,68.4z"/>
		<path fill="#575756" d="M42.1,68.4c0-5.4,9.7-19.4,9.7-19.4s9.7,14.1,9.7,19.4c0,5.4-4.4,9.7-9.7,9.7
			C46.4,78.2,42.1,73.8,42.1,68.4z"/>
		<path fill="#1D1D1B" d="M32.4,68.4c0-5.4,9.7-19.4,9.7-19.4s9.7,14.1,9.7,19.4c0,5.4-4.4,9.7-9.7,9.7
			C36.7,78.2,32.4,73.8,32.4,68.4z"/>
	</g>
	<g>
		<path fill="#1D1D1B" d="M87.6,40.5c9.8-0.3,17.6-8.3,17.6-18.1c0-10-8.1-18.1-18.1-18.1c-9.8,0-17.9,7.9-18.1,17.6H16v52v29.9H4.8
			v2h94.1v-2H87.6V73.9V40.5z M87.1,5.2c9.5,0,17.1,7.7,17.1,17.1c0,9.5-7.7,17.1-17.1,17.1S70,31.9,70,22.4
			C70,12.9,77.6,5.2,87.1,5.2z M17,22.9h52c0.3,9.6,8,17.4,17.6,17.6v33.3c0,14.7-27.4,27.2-33.7,29.9h-2.2
			C44.4,101.1,17,88.6,17,73.9V22.9z M17,79c2.2,5.6,7.8,11.4,16.9,17.1c5.4,3.4,10.9,6.1,14.3,7.6H17V79z M86.6,103.8H55.4
			c3.4-1.5,8.9-4.2,14.3-7.6c9.1-5.8,14.7-11.5,16.9-17.1V103.8z"/>
		<polygon fill="#1D1D1B" points="97.6,14.4 96.8,13.8 85.2,29.9 77.3,22 76.6,22.8 85.4,31.5 		"/>
	</g>
</g>
</svg>
