<svg xmlns="http://www.w3.org/2000/svg" width="110" height="110" viewBox="0 0 110 110"><path fill="#878787" d="M51.8 68.4c0-5.4 9.7-19.4 9.7-19.4s9.7 14.1 9.7 19.4c0 5.4-4.4 9.7-9.7 9.7-5.3.1-9.7-4.3-9.7-9.7z"/><path fill="#575756" d="M42.1 68.4c0-5.4 9.7-19.4 9.7-19.4s9.7 14.1 9.7 19.4c0 5.4-4.4 9.7-9.7 9.7-5.4.1-9.7-4.3-9.7-9.7z"/><path fill="#1D1D1B" d="M32.4 68.4c0-5.4 9.7-19.4 9.7-19.4s9.7 14.1 9.7 19.4c0 5.4-4.4 9.7-9.7 9.7-5.4.1-9.7-4.3-9.7-9.7z"/><g fill="#1D1D1B"><path d="M87.6 40.5c9.8-.3 17.6-8.3 17.6-18.1 0-10-8.1-18.1-18.1-18.1-9.8 0-17.9 7.9-18.1 17.6H16v81.9H4.8v2h94.1v-2H87.6V40.5zm-.5-35.3c9.5 0 17.1 7.7 17.1 17.1 0 9.5-7.7 17.1-17.1 17.1S70 31.9 70 22.4 77.6 5.2 87.1 5.2zM17 22.9h52c.3 9.6 8 17.4 17.6 17.6v33.3c0 14.7-27.4 27.2-33.7 29.9h-2.2C44.4 101.1 17 88.6 17 73.9v-51zM17 79c2.2 5.6 7.8 11.4 16.9 17.1 5.4 3.4 10.9 6.1 14.3 7.6H17V79zm69.6 24.8H55.4c3.4-1.5 8.9-4.2 14.3-7.6 9.1-5.8 14.7-11.5 16.9-17.1v24.7z"/><path d="M97.6 14.4l-.8-.6-11.6 16.1-7.9-7.9-.7.8 8.8 8.7"/></g></svg>