<?xml version="1.0" encoding="utf-8"?>
<!-- Generator: Adobe Illustrator 16.0.0, SVG Export Plug-In . SVG Version: 6.00 Build 0)  -->
<!DOCTYPE svg PUBLIC "-//W3C//DTD SVG 1.1//EN" "http://www.w3.org/Graphics/SVG/1.1/DTD/svg11.dtd">
<svg version="1.1" id="Layer_1" xmlns="http://www.w3.org/2000/svg" xmlns:xlink="http://www.w3.org/1999/xlink" x="0px" y="0px"
	 width="110px" height="110px" viewBox="0 0 110 110" enable-background="new 0 0 110 110" xml:space="preserve">
<g>
	<path fill="#1D1D1B" d="M39.6,54.9L39.6,54.9l0,9.6h6.9v3.3h1.1v35h4.2v-35h1.1l0-3.3h6.9v-9.6v-1V34.8H39.6V54.9z M50.8,101.8
		h-2.2v-34h2.2V101.8z M58.7,63.5h-7v0l-3.5,0h-7.7l0-8.6h18.1V63.5z M52.1,53.9l0-18.2h2.8v18.2H52.1z M51.1,53.9h-2.8V35.8h2.8
		L51.1,53.9z M47.2,53.9h-2.8V35.8h2.8V53.9z M58.7,53.9h-2.8V35.8h2.8V53.9z M40.6,35.8h2.8v18.2h-2.8V35.8z"/>
	<rect x="43.3" y="58.7" fill="#1D1D1B" width="12.8" height="1"/>
	<path fill="#1D1D1B" d="M39.5,82.7H20.8v-8.6H37l-16.7-50l-16.7,50h16.2v9.6H38v18.7h3V83.2h-1.5V82.7z M5.1,73.1l15.3-45.8
		l15.3,45.8H20.8V54.4h-1v18.7H5.1z"/>
	<path fill="#1D1D1B" d="M106.3,18.7l0-6.7L67,11.8l0,6.8l1.9,0l0,6.2l-1.9,0l0,6.7l1.9,0l0,6.2l-1.9,0l0,6.7l1.9,0l0,6.2l-1.9,0
		l0,6.7l1.9,0l0,6.2l-1.9,0l0,6.7l13.4,0l0,12.4l-18.7-0.1l0,0.5l-1.5,0L60,102.3l3,0L63,83.7l18.2,0.1l0-13.4l24.9,0.1l0-6.7
		l-1.9,0l0-6.2l1.9,0l0-6.7l-1.9,0l0-6.2l1.9,0l0-6.7l-1.9,0l0-6.2l1.9,0l0-6.7l-1.9,0l0-6.2L106.3,18.7z M105.3,25.9l0,4.7l-1.9,0
		l0,8.2l1.9,0l0,4.7l-1.9,0l0,8.2l1.9,0l0,4.7l-1.9,0l0,8.2l1.9,0l0,4.7l-23.9-0.1l0-14.3l5.2,0l0-1l-5.2,0l0.1-25.8l5.2,0l0-1
		l-6.2,0L80.3,55l0,0l0,14.3l-12.4,0l0-4.7l1.9,0l0-8.2l-1.9,0l0-4.7l1.9,0l0-8.2l-1.9,0l0-4.7l1.9,0l0-8.2l-1.9,0l0-4.7l1.9,0
		l0-8.2l-1.9,0l0-4.7l35.9,0.1l1.4,0l0,4.7l-1.9,0l0,8.2L105.3,25.9z"/>
</g>
</svg>
