<svg xmlns="http://www.w3.org/2000/svg" width="110" height="110" viewBox="0 0 110 110"><g fill="#1D1D1B"><path d="M39.6 54.9v9.6h6.9v3.3h1.1v35h4.2v-35h1.1v-3.3h6.9V34.8H39.6v20.1zm11.2 46.9h-2.2v-34h2.2v34zm7.9-38.3H40.5v-8.6h18.1v8.6zm-6.6-9.6V35.7h2.8v18.2h-2.8zm-1 0h-2.8V35.8h2.8v18.1zm-3.9 0h-2.8V35.8h2.8v18.1zm11.5 0h-2.8V35.8h2.8v18.1zM40.6 35.8h2.8V54h-2.8V35.8z"/><path d="M43.3 58.7h12.8v1H43.3zm-3.8 24H20.8v-8.6H37l-16.7-50-16.7 50h16.2v9.6H38v18.7h3V83.2h-1.5v-.5zM5.1 73.1l15.3-45.8 15.3 45.8H20.8V54.4h-1v18.7H5.1zm101.2-54.4V12L67 11.8v6.8h1.9v6.2H67v6.7h1.9v6.2H67v6.7h1.9v6.2H67v6.7h1.9v6.2H67v6.7h13.4v12.4l-18.7-.1v.5h-1.5l-.2 19.3h3V83.7l18.2.1V70.4l24.9.1v-6.7h-1.9v-6.2h1.9v-6.7h-1.9v-6.2h1.9V38h-1.9v-6.2h1.9v-6.7h-1.9v-6.2l2.1-.2zm-1 7.2v4.7h-1.9v8.2h1.9v4.7h-1.9v8.2h1.9v4.7h-1.9v8.2h1.9v4.7l-23.9-.1V54.9h5.2v-1h-5.2l.1-25.8h5.2v-1h-6.2L80.3 55v14.3H67.9v-4.7h1.9v-8.2h-1.9v-4.7h1.9v-8.2h-1.9v-4.7h1.9v-8.2h-1.9v-4.7h1.9v-8.2h-1.9V13l35.9.1h1.4v4.7h-1.9V26l2-.1z"/></g></svg>