<?xml version="1.0" encoding="utf-8"?>
<!-- Generator: Adobe Illustrator 16.0.0, SVG Export Plug-In . SVG Version: 6.00 Build 0)  -->
<!DOCTYPE svg PUBLIC "-//W3C//DTD SVG 1.1//EN" "http://www.w3.org/Graphics/SVG/1.1/DTD/svg11.dtd">
<svg version="1.1" id="Layer_1" xmlns="http://www.w3.org/2000/svg" xmlns:xlink="http://www.w3.org/1999/xlink" x="0px" y="0px"
	 width="110px" height="110px" viewBox="0 0 110 110" enable-background="new 0 0 110 110" xml:space="preserve">
<path fill="#1D1D1B" d="M89.8,101.4V21.9H80H20.2v69.7v9.8H9.3v2h91.4v-2H89.8z M61.4,41.9c0-1.5,0.2-2.9,0.7-4.3
	c1.5-4.3,5.8-8.1,9.5-10.8v15.1H61.4z M88.8,42.9v19H65.3c-0.3-3.3-1.2-6.5-2-9.7c-0.9-3.2-1.7-6.3-1.9-9.3H88.8z M88.8,81.9H72.6
	v-19h16.1V81.9z M65.4,62.9h6.3v19H51.2c9.1-4.7,13.9-10.2,14.2-16.3C65.4,64.6,65.4,63.8,65.4,62.9z M88.8,82.9v18.5H55.5V82.9
	H88.8z M88.8,22.9v19H72.6V26.1c2.7-1.8,4.9-3,5.3-3.2H88.8z M21.2,22.9h54.7c-3.8,2.1-12.3,7.6-14.7,14.3
	c-1.7,4.8-0.3,9.9,1.1,15.3c1.1,4.2,2.3,8.5,2.1,13c-0.9,16.7-38.1,24-43.2,24.9V22.9z M21.2,91.4c2.1-0.4,11.8-2.2,21.4-5.8
	c2.4-0.9,4.5-1.8,6.5-2.7h5.4v18.5H21.2V91.4z"/>
</svg>
