<svg xmlns="http://www.w3.org/2000/svg" width="110" height="110" viewBox="0 0 110 110"><path fill="#1D1D1B" d="M89.8 101.4V21.9H20.2v79.5H9.3v2h91.4v-2H89.8zM61.4 41.9c0-1.5.2-2.9.7-4.3 1.5-4.3 5.8-8.1 9.5-10.8v15.1H61.4zm27.4 1v19H65.3c-.3-3.3-1.2-6.5-2-9.7-.9-3.2-1.7-6.3-1.9-9.3h27.4zm0 39H72.6v-19h16.1v19zm-23.4-19h6.3v19H51.2c9.1-4.7 13.9-10.2 14.2-16.3v-2.7zm23.4 20v18.5H55.5V82.9h33.3zm0-60v19H72.6V26.1c2.7-1.8 4.9-3 5.3-3.2h10.9zm-67.6 0h54.7c-3.8 2.1-12.3 7.6-14.7 14.3-1.7 4.8-.3 9.9 1.1 15.3 1.1 4.2 2.3 8.5 2.1 13-.9 16.7-38.1 24-43.2 24.9V22.9zm0 68.5c2.1-.4 11.8-2.2 21.4-5.8 2.4-.9 4.5-1.8 6.5-2.7h5.4v18.5H21.2v-10z"/></svg>