<?xml version="1.0" encoding="utf-8"?>
<!-- Generator: Adobe Illustrator 16.0.0, SVG Export Plug-In . SVG Version: 6.00 Build 0)  -->
<!DOCTYPE svg PUBLIC "-//W3C//DTD SVG 1.1//EN" "http://www.w3.org/Graphics/SVG/1.1/DTD/svg11.dtd">
<svg version="1.1" id="Layer_1" xmlns="http://www.w3.org/2000/svg" xmlns:xlink="http://www.w3.org/1999/xlink" x="0px" y="0px"
	 width="110px" height="110px" viewBox="0 0 110 110" enable-background="new 0 0 110 110" xml:space="preserve">
<g>
	<rect x="43.8" y="77.8" fill="#1D1D1B" width="37.3" height="1"/>
	<rect x="43.8" y="31.1" fill="#1D1D1B" width="37.3" height="1"/>
	<path fill="#1D1D1B" d="M59.4,64c1,0.5,2,0.8,3.1,0.8c1.1,0,2.2-0.3,3.1-0.8c1,0.5,2,0.8,3.1,0.8c3.7,0,6.7-3,6.7-6.7
		c0-3.6-6-12.3-6.3-12.7l-0.4-0.6l-0.4,0.6c0,0-1.3,1.9-2.7,4.2c-1.3-2.3-2.6-4.1-2.7-4.2l-0.4-0.6L62,45.3c0,0-1.3,1.9-2.7,4.2
		c-1.3-2.3-2.6-4.1-2.7-4.2l-0.4-0.6l-0.4,0.6c-0.3,0.4-6.3,9.2-6.3,12.7c0,3.7,3,6.7,6.7,6.7C57.4,64.8,58.4,64.5,59.4,64z
		 M68.7,46.5c1.9,2.9,5.7,9,5.7,11.5c0,3.1-2.6,5.7-5.7,5.7c-0.7,0-1.4-0.1-2.1-0.4c1.6-1.2,2.6-3.1,2.6-5.3c0-1.8-1.5-4.8-3-7.5
		C67.1,48.8,68.1,47.3,68.7,46.5z M62.5,46.5c1.9,2.9,5.7,9,5.7,11.5c0,3.1-2.6,5.7-5.7,5.7c-0.7,0-1.4-0.1-2.1-0.4
		c1.6-1.2,2.6-3.1,2.6-5.3c0-1.8-1.5-4.8-3-7.5C60.9,48.8,61.9,47.3,62.5,46.5z M50.5,58.1c0-2.7,4.3-9.5,5.7-11.5
		c1.9,2.9,5.7,9,5.7,11.5c0,3.1-2.6,5.7-5.7,5.7C53.1,63.8,50.5,61.2,50.5,58.1z"/>
	<path fill="#1D1D1B" d="M51.5,98.8c0,2,2.1,3.6,4.8,3.6c2.6,0,9.5-3.6,9.5-3.6s-6.9-3.6-9.5-3.6S51.5,96.8,51.5,98.8z"/>
	<polygon fill="#1D1D1B" points="9.8,97.8 9.8,99.8 51.5,99.8 51.5,98.8 51.5,97.8 	"/>
	<path fill="#1D1D1B" d="M107.7,47.2H86.3V22.8h4.2v-1H34.5v1h4.2v64.3h-4.2v1h55.9v-1h-4.2v-3.4h14v-3.7h3.7v-3.7h3.7V47.2z
		 M39.7,87.1V22.8h45.6v64.3H39.7z M99.2,82.6h-13v-27h13V82.6z M103,78.9h-2.7V54.7h-14v-2.7H103V78.9z M106.7,75.2H104V50.9H86.3
		v-2.7h20.4V75.2z"/>
	<path fill="#1D1D1B" d="M31.3,80.6v-1V74h-22v5.6h-7v8.5h29V80.6z M10.3,75h20v4.6h-20V75z M30.3,87.1h-27v-6.5h6h21V87.1z"/>
</g>
</svg>
