<svg xmlns="http://www.w3.org/2000/svg" width="110" height="110" viewBox="0 0 110 110"><g fill="#1D1D1B"><path d="M43.8 77.8h37.3v1H43.8zm0-46.7h37.3v1H43.8zM59.4 64c1 .5 2 .8 3.1.8s2.2-.3 3.1-.8c1 .5 2 .8 3.1.8 3.7 0 6.7-3 6.7-6.7 0-3.6-6-12.3-6.3-12.7l-.4-.6-.4.6s-1.3 1.9-2.7 4.2c-1.3-2.3-2.6-4.1-2.7-4.2l-.4-.6-.5.5s-1.3 1.9-2.7 4.2c-1.3-2.3-2.6-4.1-2.7-4.2l-.4-.6-.4.6c-.3.4-6.3 9.2-6.3 12.7 0 3.7 3 6.7 6.7 6.7 1.2.1 2.2-.2 3.2-.7zm9.3-17.5c1.9 2.9 5.7 9 5.7 11.5 0 3.1-2.6 5.7-5.7 5.7-.7 0-1.4-.1-2.1-.4 1.6-1.2 2.6-3.1 2.6-5.3 0-1.8-1.5-4.8-3-7.5.9-1.7 1.9-3.2 2.5-4zm-6.2 0c1.9 2.9 5.7 9 5.7 11.5 0 3.1-2.6 5.7-5.7 5.7-.7 0-1.4-.1-2.1-.4C62 62.1 63 60.2 63 58c0-1.8-1.5-4.8-3-7.5.9-1.7 1.9-3.2 2.5-4zm-12 11.6c0-2.7 4.3-9.5 5.7-11.5 1.9 2.9 5.7 9 5.7 11.5 0 3.1-2.6 5.7-5.7 5.7s-5.7-2.6-5.7-5.7zm1 40.7c0 2 2.1 3.6 4.8 3.6 2.6 0 9.5-3.6 9.5-3.6s-6.9-3.6-9.5-3.6-4.8 1.6-4.8 3.6zm-41.7-1v2h41.7v-2"/><path d="M107.7 47.2H86.3V22.8h4.2v-1h-56v1h4.2v64.3h-4.2v1h55.9v-1h-4.2v-3.4h14V80h3.7v-3.7h3.7V47.2zm-68 39.9V22.8h45.6v64.3H39.7zm59.5-4.5h-13v-27h13v27zm3.8-3.7h-2.7V54.7h-14V52H103v26.9zm3.7-3.7H104V50.9H86.3v-2.7h20.4v27zm-75.4 5.4V74h-22v5.6h-7v8.5h29v-7.5zm-21-5.6h20v4.6h-20V75zm20 12.1h-27v-6.5h27v6.5z"/></g></svg>