<?xml version="1.0" encoding="UTF-8"?>
<!-- Generator: Adobe Illustrator 16.0.0, SVG Export Plug-In . SVG Version: 6.00 Build 0)  -->
<!DOCTYPE svg PUBLIC "-//W3C//DTD SVG 1.1//EN" "http://www.w3.org/Graphics/SVG/1.1/DTD/svg11.dtd">
<svg version="1.1" id="Layer_1" xmlns="http://www.w3.org/2000/svg" xmlns:xlink="http://www.w3.org/1999/xlink" x="0px" y="0px" width="196px" height="100px" viewBox="0 0 196 100" enable-background="new 0 0 196 100" xml:space="preserve">
<g>
	<g>
		<g>
			<path d="M118.2,44.6h-6.4v-3.9H84.4v3.9H78l0-0.8c0-0.2,0.6-22.3-5.7-28.9l-1.2-1.2h16.7l-0.7,1.1c-0.8,1.2-2.5,4.6-1.6,6.3     c0.4,0.8,1.4,1.2,3,1.2c2.1,0,3.3-0.7,3.7-2.1c0.7-2.6-1.3-6.6-2.6-7.4l-0.9-0.6L98.1,5l9.3,7.2l-0.9,0.6     c-1.3,0.8-3.4,4.9-2.6,7.5c0.4,1.4,1.6,2.1,3.7,2.1c1.6,0,2.6-0.4,3-1.2c0.9-1.7-0.9-5.1-1.6-6.3l-0.7-1.1H125l-1.2,1.2     c-6.2,6.6-5.7,28.7-5.7,28.9L118.2,44.6z M113.2,43.1h3.4c-0.1-3.8,0-20.7,5.1-27.9h-10.8c0.9,1.6,2.1,4.6,1,6.6     c-0.7,1.3-2.2,1.9-4.3,1.9c-3.4,0-4.7-1.7-5.1-3.2c-0.8-2.7,0.8-6.7,2.5-8.4l-6.9-5.3l-6.9,5.3c1.7,1.8,3.3,5.7,2.5,8.4     c-0.4,1.5-1.6,3.2-5.1,3.2c-2.2,0-3.6-0.7-4.3-1.9c-1.1-2,0.1-5,1-6.6H74.5c5.1,7.3,5.1,24.1,5.1,27.9H83v-3.9h30.3V43.1z"/>
		</g>
	</g>
	<g>
		<rect x="86.3" y="43.1" width="23.6" height="1.5"/>
	</g>
	<g>
		<path d="M57.6,51.2h1.7v18.7h-1.7V51.2z"/>
		<path d="M64.4,51.2h2.9l4.5,16.6h0.1l4.5-16.6h2.8v18.7h-1.7V52.7h-0.1l-4.9,17.2H71l-4.9-17.2h-0.1v17.2h-1.7V51.2z"/>
		<path d="M84.2,51.2h5.1c3.6,0,5.1,2.1,5.1,5.3c0,2.9-1.4,5.3-5.7,5.3h-2.8v8.1h-1.7V51.2z M85.9,60.4h2.9c2.2,0,4-1,4-3.9    c0-2.8-1.4-3.9-4-3.9h-2.9V60.4z"/>
		<path d="M98.8,51.2h9.3v1.4h-7.6v6.8h7.1v1.4h-7.1v7.7h7.8v1.4h-9.5V51.2z"/>
		<path d="M112.4,51.2h5.6c3.1,0,4.9,1.8,4.9,4.7c0,2.3-0.9,4.3-3.4,4.7v0.1c2.3,0.2,3.1,1.5,3.2,4.4l0.1,2c0,1,0.1,2,0.8,2.8h-2    c-0.4-0.7-0.5-1.6-0.5-2.6l-0.1-1.6c-0.1-3.3-0.7-4.4-3.7-4.4h-3.2v8.6h-1.7V51.2z M114.1,59.9h2.9c2.7,0,4.2-1.2,4.2-3.7    c0-2.3-1-3.7-4-3.7h-3.1V59.9z"/>
		<path d="M131.5,51.2h2.1l5.5,18.7h-1.8l-1.5-5.5h-6.6l-1.5,5.5H126L131.5,51.2z M135.5,63l-2.9-10.5h-0.1L129.7,63H135.5z"/>
		<path d="M2.9,76h1.7v18.7H2.9V76z"/>
		<path d="M13.1,77.4H8.3V76h11.3v1.4h-4.8v17.3h-1.7V77.4z"/>
		<path d="M25.8,76h2.1l5.5,18.7h-1.8l-1.5-5.5h-6.6L22,94.7h-1.8L25.8,76z M29.7,87.8l-2.9-10.5h-0.1l-2.9,10.5H29.7z"/>
		<path d="M36.8,76h1.7v17.3h7.8v1.4h-9.4V76z"/>
		<path d="M50.1,76h1.7v18.7h-1.7V76z"/>
		<path d="M60.8,76h2.1l5.5,18.7h-1.8l-1.5-5.5h-6.6l-1.5,5.5h-1.8L60.8,76z M64.8,87.8l-2.9-10.5h-0.1l-2.9,10.5H64.8z"/>
		<path d="M71.9,76h2.3l7.2,16.3h0.1V76H83v18.7h-2.3l-7.2-16.3h-0.1v16.3h-1.7V76z"/>
		<path d="M96.2,76h9.3v1.4h-7.6v6.8h7.1v1.4h-7.1v9.1h-1.7V76z"/>
		<path d="M109.4,76h1.7v18.7h-1.7V76z"/>
		<path d="M116.1,76h2.3l7.2,16.3h0.1V76h1.7v18.7H125l-7.2-16.3h-0.1v16.3h-1.7V76z"/>
		<path d="M132.3,76h1.7v18.7h-1.7V76z"/>
		<path d="M147.2,80.8c0-2.3-1.1-3.7-3.4-3.7c-2.3,0-3.5,1.5-3.5,3.4c0,5.6,9.1,2.5,9.1,9.1c0,3.6-2.3,5.5-5.7,5.5    c-3.5,0-5.5-1.9-5.5-5.6v-0.5h1.7v0.7c0,2.4,1.3,4,3.7,4c2.4,0,4-1.2,4-3.8c0-5.6-9.1-2.4-9.1-9.2c0-2.9,1.9-5,5.2-5    c3.5,0,5.1,1.8,5.1,5.1H147.2z"/>
		<path d="M162.5,85.3h-7.3v9.3h-1.7V76h1.7v8h7.3v-8h1.7v18.7h-1.7V85.3z"/>
		<path d="M169.1,76h9.3v1.4h-7.6v6.8h7.1v1.4h-7.1v7.7h7.8v1.4h-9.5V76z"/>
		<path d="M190.9,80.8c0-2.3-1.1-3.7-3.4-3.7c-2.3,0-3.5,1.5-3.5,3.4c0,5.6,9.1,2.5,9.1,9.1c0,3.6-2.3,5.5-5.7,5.5    c-3.5,0-5.5-1.9-5.5-5.6v-0.5h1.7v0.7c0,2.4,1.3,4,3.7,4c2.4,0,4-1.2,4-3.8c0-5.6-9.1-2.4-9.1-9.2c0-2.9,1.9-5,5.2-5    c3.5,0,5.1,1.8,5.1,5.1H190.9z"/>
	</g>
</g>
</svg>