<svg xmlns="http://www.w3.org/2000/svg" width="110" height="50" viewBox="0 0 110 50"><path fill="#FFF" d="M65.6 22.2h-3.4v-2.1H47.9v2.1h-3.4v-.4c0-.1.3-11.7-3-15.2l-.6-.7h8.8l-.4.6c-.4.6-1.3 2.4-.9 3.3.2.4.8.6 1.6.6 1.1 0 1.7-.4 1.9-1.1.4-1.4-.7-3.5-1.4-3.9l-.5-.3 5-3.8 4.9 3.8-.5.3c-.7.4-1.8 2.6-1.4 3.9.2.8.9 1.1 1.9 1.1.8 0 1.4-.2 1.6-.6.5-.9-.4-2.7-.8-3.3l-.4-.6h8.8l-.6.7c-3.3 3.4-3 15.1-3 15.2l.1.4zm-2.6-.8h1.8c0-2 0-10.9 2.7-14.7h-5.7c.5.9 1.1 2.4.5 3.5-.4.7-1.1 1-2.3 1-1.8 0-2.5-.9-2.7-1.7-.3-1.4.5-3.5 1.4-4.4L55 2.3l-3.6 2.8c.9.9 1.7 3 1.3 4.4-.2.8-.9 1.7-2.7 1.7-1.1 0-1.9-.3-2.3-1-.6-1.1.1-2.6.5-3.5h-5.7c2.7 3.8 2.7 12.7 2.7 14.7H47v-2.1h16v2.1zm-14.1 0h12.4v.8H48.9zm-15.1 4.2h.9v9.8h-.9v-9.8zm3.6 0h1.5l2.4 8.7 2.4-8.7h1.4v9.8h-.9v-9l-2.6 9h-.8l-2.6-9v9h-.9v-9.8zm10.4 0h2.7c1.9 0 2.7 1.1 2.7 2.8 0 1.5-.8 2.8-3 2.8h-1.5v4.3h-.9v-9.9zm.8 4.8h1.5c1.2 0 2.1-.5 2.1-2s-.7-2-2.1-2h-1.5v4zm6.8-4.8h4.9v.7h-4v3.6H60v.7h-3.7v4h4.1v.7h-5v-9.7zm7.2 0h2.9c1.6 0 2.6.9 2.6 2.5 0 1.2-.5 2.2-1.8 2.5 1.2.1 1.6.8 1.7 2.3V34c0 .5.1 1.1.4 1.4h-1c-.2-.3-.2-.9-.3-1.4v-.8c-.1-1.7-.4-2.3-2-2.3h-1.7v4.5h-.9v-9.8zm.9 4.6H65c1.4 0 2.2-.6 2.2-1.9 0-1.2-.5-1.9-2.1-1.9h-1.6v3.8zm9.1-4.6h1.1l2.9 9.8h-.9l-.8-2.9h-3.4l-.8 2.9h-.9l2.8-9.8zm2.1 6.2l-1.5-5.5-1.5 5.5h3zM5 38.6h.9v9.8H5v-9.8zm5.4.8H7.8v-.7h6v.7h-2.5v9.1h-.9v-9.1zm6.6-.8h1.1l2.9 9.8h-.9l-.8-2.9h-3.4l-.8 2.9h-.9l2.8-9.8zm2.1 6.3l-1.5-5.5-1.5 5.5h3zm3.7-6.3h.9v9.1h4.1v.7h-5v-9.8zm7 0h.9v9.8h-.9v-9.8zm5.7 0h1.1l2.9 9.8h-.9l-.8-2.9h-3.4l-.8 2.9h-.9l2.8-9.8zm2 6.3L36 39.3l-1.5 5.5h3zm3.8-6.3h1.2l3.8 8.6v-8.6h.9v9.8H46l-3.8-8.6v8.6h-.9v-9.8zm12.7 0h4.9v.7h-4V43h3.7v.7h-3.7v4.8H54v-9.9zm7 0h.9v9.8H61v-9.8zm3.5 0h1.2l3.8 8.6v-8.6h.9v9.8h-1.2l-3.8-8.6v8.6h-.9v-9.8zm8.5 0h.9v9.8H73v-9.8zm7.9 2.6c0-1.2-.6-1.9-1.8-1.9-1.2 0-1.9.8-1.9 1.8 0 2.9 4.8 1.3 4.8 4.8 0 1.9-1.2 2.9-3 2.9s-2.9-1-2.9-2.9v-.3h.9v.4c0 1.3.7 2.1 2 2.1 1.2 0 2.1-.6 2.1-2 0-2.9-4.8-1.3-4.8-4.8 0-1.5 1-2.6 2.7-2.6 1.8 0 2.7.9 2.7 2.7h-.8zm8 2.4h-3.8v4.9h-.9v-9.8h.9v4.2h3.8v-4.2h.9v9.8h-.9v-4.9zm3.5-5h4.9v.7h-4V43H97v.7h-3.7v4h4.1v.7h-5v-9.8zm11.5 2.6c0-1.2-.6-1.9-1.8-1.9-1.2 0-1.9.8-1.9 1.8 0 2.9 4.8 1.3 4.8 4.8 0 1.9-1.2 2.9-3 2.9s-2.9-1-2.9-2.9v-.3h.9v.4c0 1.3.7 2.1 2 2.1 1.2 0 2.1-.6 2.1-2 0-2.9-4.8-1.3-4.8-4.8 0-1.5 1-2.6 2.7-2.6 1.8 0 2.7.9 2.7 2.7h-.8z"/></svg>