<svg xmlns="http://www.w3.org/2000/svg" width="196" height="100" viewBox="0 0 196 100"><path d="M118.2 44.6h-6.4v-3.9H84.4v3.9H78v-.8c0-.2.6-22.3-5.7-28.9l-1.2-1.2h16.7l-.7 1.1c-.8 1.2-2.5 4.6-1.6 6.3.4.8 1.4 1.2 3 1.2 2.1 0 3.3-.7 3.7-2.1.7-2.6-1.3-6.6-2.6-7.4l-.9-.6L98.1 5l9.3 7.2-.9.6c-1.3.8-3.4 4.9-2.6 7.5.4 1.4 1.6 2.1 3.7 2.1 1.6 0 2.6-.4 3-1.2.9-1.7-.9-5.1-1.6-6.3l-.7-1.1H125l-1.2 1.2c-6.2 6.6-5.7 28.7-5.7 28.9l.1.7zm-5-1.5h3.4c-.1-3.8 0-20.7 5.1-27.9h-10.8c.9 1.6 2.1 4.6 1 6.6-.7 1.3-2.2 1.9-4.3 1.9-3.4 0-4.7-1.7-5.1-3.2-.8-2.7.8-6.7 2.5-8.4l-6.9-5.3-6.9 5.3c1.7 1.8 3.3 5.7 2.5 8.4-.4 1.5-1.6 3.2-5.1 3.2-2.2 0-3.6-.7-4.3-1.9-1.1-2 .1-5 1-6.6H74.5c5.1 7.3 5.1 24.1 5.1 27.9H83v-3.9h30.3v3.9zm-26.9 0h23.6v1.5H86.3zm-28.7 8.1h1.7v18.7h-1.7V51.2zm6.8 0h2.9l4.5 16.6h.1l4.5-16.6h2.8v18.7h-1.7V52.7h-.1l-4.9 17.2H71l-4.9-17.2H66v17.2h-1.7V51.2zm19.8 0h5.1c3.6 0 5.1 2.1 5.1 5.3 0 2.9-1.4 5.3-5.7 5.3h-2.8v8.1h-1.7V51.2zm1.7 9.2h2.9c2.2 0 4-1 4-3.9 0-2.8-1.4-3.9-4-3.9h-2.9v7.8zm12.9-9.2h9.3v1.4h-7.6v6.8h7.1v1.4h-7.1v7.7h7.8v1.4h-9.5V51.2zm13.6 0h5.6c3.1 0 4.9 1.8 4.9 4.7 0 2.3-.9 4.3-3.4 4.7v.1c2.3.2 3.1 1.5 3.2 4.4l.1 2c0 1 .1 2 .8 2.8h-2c-.4-.7-.5-1.6-.5-2.6l-.1-1.6c-.1-3.3-.7-4.4-3.7-4.4h-3.2v8.6h-1.7V51.2zm1.7 8.7h2.9c2.7 0 4.2-1.2 4.2-3.7 0-2.3-1-3.7-4-3.7h-3.1v7.4zm17.4-8.7h2.1l5.5 18.7h-1.8l-1.5-5.5h-6.6l-1.5 5.5H126l5.5-18.7zm4 11.8l-2.9-10.5h-.1L129.7 63h5.8zM2.9 76h1.7v18.7H2.9V76zm10.2 1.4H8.3V76h11.3v1.4h-4.8v17.3h-1.7V77.4zM25.8 76h2.1l5.5 18.7h-1.8l-1.5-5.5h-6.6L22 94.7h-1.8L25.8 76zm3.9 11.8l-2.9-10.5h-.1l-2.9 10.5h5.9zM36.8 76h1.7v17.3h7.8v1.4h-9.4V76zm13.3 0h1.7v18.7h-1.7V76zm10.7 0h2.1l5.5 18.7h-1.8l-1.5-5.5h-6.6L57 94.7h-1.8L60.8 76zm4 11.8l-2.9-10.5h-.1l-2.9 10.5h5.9zM71.9 76h2.3l7.2 16.3h.1V76H83v18.7h-2.3l-7.2-16.3h-.1v16.3h-1.7V76zm24.3 0h9.3v1.4h-7.6v6.8h7.1v1.4h-7.1v9.1h-1.7V76zm13.2 0h1.7v18.7h-1.7V76zm6.7 0h2.3l7.2 16.3h.1V76h1.7v18.7H125l-7.2-16.3h-.1v16.3H116V76zm16.2 0h1.7v18.7h-1.7V76zm14.9 4.8c0-2.3-1.1-3.7-3.4-3.7s-3.5 1.5-3.5 3.4c0 5.6 9.1 2.5 9.1 9.1 0 3.6-2.3 5.5-5.7 5.5-3.5 0-5.5-1.9-5.5-5.6V89h1.7v.7c0 2.4 1.3 4 3.7 4 2.4 0 4-1.2 4-3.8 0-5.6-9.1-2.4-9.1-9.2 0-2.9 1.9-5 5.2-5 3.5 0 5.1 1.8 5.1 5.1h-1.6zm15.3 4.5h-7.3v9.3h-1.7V76h1.7v8h7.3v-8h1.7v18.7h-1.7v-9.4zm6.6-9.3h9.3v1.4h-7.6v6.8h7.1v1.4h-7.1v7.7h7.8v1.4h-9.5V76zm21.8 4.8c0-2.3-1.1-3.7-3.4-3.7s-3.5 1.5-3.5 3.4c0 5.6 9.1 2.5 9.1 9.1 0 3.6-2.3 5.5-5.7 5.5-3.5 0-5.5-1.9-5.5-5.6V89h1.7v.7c0 2.4 1.3 4 3.7 4 2.4 0 4-1.2 4-3.8 0-5.6-9.1-2.4-9.1-9.2 0-2.9 1.9-5 5.2-5 3.5 0 5.1 1.8 5.1 5.1h-1.6z"/></svg>