<svg xmlns="http://www.w3.org/2000/svg" width="156" height="76" viewBox="0 0 156 76"><path fill="#FFF" d="M93.7 33.8h-5v-3H67.4v3h-5v-.6c0-.2.4-17.4-4.4-22.5l-.9-1h13l-.6.9c-.6.9-2 3.5-1.3 4.9.3.6 1.1.9 2.4.9 1.6 0 2.5-.5 2.9-1.7.6-2-1-5.2-2-5.8l-.7-.4L78.1 3l7.3 5.6-.8.4c-1 .6-2.6 3.8-2 5.8.3 1.1 1.3 1.7 2.9 1.7 1.2 0 2-.3 2.4-.9.7-1.3-.7-4-1.3-4.9l-.6-.9h13l-.9 1c-4.9 5.1-4.4 22.3-4.4 22.5v.5zm-3.9-1.1h2.7c0-3 0-16.1 4-21.7h-8.4c.7 1.3 1.6 3.6.8 5.2-.5 1-1.7 1.5-3.4 1.5-2.7 0-3.6-1.3-4-2.5-.6-2.1.6-5.2 1.9-6.6L78 4.5l-5.4 4.1c1.3 1.4 2.5 4.4 1.9 6.6-.3 1.1-1.3 2.5-4 2.5-1.7 0-2.8-.5-3.4-1.5-.9-1.6.1-3.9.8-5.2h-8.4c3.9 5.7 4 18.8 4 21.7h2.7v-3h23.6v3z"/><path fill="#FFF" d="M68.9 32.7h18.3v1.1H68.9zm-22.3 6.2h1.3v14.6h-1.3V38.9zm5.3 0h2.3l3.5 12.9 3.5-12.9h2.1v14.6H62V40.1l-3.8 13.3H57l-3.8-13.3v13.3h-1.3V38.9zm15.4 0h3.9c2.8 0 4 1.7 4 4.1 0 2.2-1.1 4.1-4.4 4.1h-2.2v6.3h-1.3V38.9zm1.3 7.2h2.2c1.7 0 3.1-.8 3.1-3s-1.1-3-3.1-3h-2.2v6zm10-7.2h7.2V40h-5.9v5.3h5.5v1.1h-5.5v6H86v1.1h-7.4V38.9zm10.6 0h4.3c2.4 0 3.8 1.4 3.8 3.7 0 1.8-.7 3.3-2.6 3.7 1.8.2 2.4 1.2 2.5 3.4v1.6c0 .8.1 1.6.6 2.1h-1.5c-.3-.5-.4-1.3-.4-2v-1.2c-.1-2.6-.6-3.4-2.9-3.4h-2.5v6.7h-1.3V38.9zm1.3 6.8h2.2c2.1 0 3.3-.9 3.3-2.9 0-1.8-.8-2.9-3.1-2.9h-2.4v5.8zm13.6-6.8h1.6l4.3 14.6h-1.4l-1.2-4.2h-5.1l-1.2 4.2h-1.4l4.4-14.6zm3.1 9.2l-2.2-8.2-2.2 8.2h4.4zM4 58.2h1.3v14.6H4V58.2zm8 1.1H8.2v-1.1H17v1.1h-3.8v13.5H12V59.3zm9.8-1.1h1.6l4.3 14.6h-1.4l-1.2-4.2H20l-1.2 4.2h-1.4l4.4-14.6zm3.1 9.2l-2.2-8.2-2.2 8.2h4.4zm5.5-9.2h1.3v13.5h6v1.1h-7.3V58.2zm10.3 0H42v14.6h-1.3V58.2zm8.4 0h1.6L55 72.8h-1.4l-1.2-4.2h-5.1l-1.2 4.2h-1.4l4.4-14.6zm3.1 9.2L50 59.2l-2.2 8.2h4.4zm5.5-9.2h1.8L65 70.9V58.2h1.3v14.6h-1.8L59 60.1v12.7h-1.3V58.2zm18.9 0h7.2v1.1h-5.9v5.3h5.5v1.1h-5.5v7.1h-1.3V58.2zm10.3 0h1.3v14.6h-1.3V58.2zm5.2 0h1.8l5.6 12.7V58.2h1.3v14.6H99l-5.6-12.7v12.7h-1.3V58.2zm12.6 0h1.3v14.6h-1.3V58.2zm11.6 3.7c0-1.8-.8-2.9-2.6-2.9s-2.8 1.2-2.8 2.6c0 4.3 7.1 2 7.1 7.1 0 2.8-1.8 4.3-4.4 4.3-2.7 0-4.2-1.5-4.2-4.3v-.4h1.3v.6c0 1.9 1 3.1 2.9 3.1 1.8 0 3.1-.9 3.1-3 0-4.3-7.1-1.9-7.1-7.1 0-2.3 1.5-3.9 4-3.9 2.7 0 4 1.4 4 4h-1.3zm11.9 3.6h-5.7v7.3h-1.3V58.2h1.3v6.2h5.7v-6.2h1.3v14.6h-1.3v-7.3zm5.1-7.3h7.2v1.1h-5.9v5.3h5.5v1.1h-5.5v6h6.1v1.1h-7.4V58.2zm17 3.7c0-1.8-.8-2.9-2.6-2.9s-2.8 1.2-2.8 2.6c0 4.3 7.1 2 7.1 7.1 0 2.8-1.8 4.3-4.4 4.3-2.7 0-4.2-1.5-4.2-4.3v-.4h1.3v.6c0 1.9 1 3.1 2.9 3.1 1.8 0 3.1-.9 3.1-3 0-4.3-7.1-1.9-7.1-7.1 0-2.3 1.5-3.9 4-3.9 2.7 0 4 1.4 4 4h-1.3z"/></svg>