<?xml version="1.0" encoding="utf-8"?>
<!-- Generator: Adobe Illustrator 16.0.0, SVG Export Plug-In . SVG Version: 6.00 Build 0)  -->
<!DOCTYPE svg PUBLIC "-//W3C//DTD SVG 1.1//EN" "http://www.w3.org/Graphics/SVG/1.1/DTD/svg11.dtd">
<svg version="1.1" id="Layer_1" xmlns="http://www.w3.org/2000/svg" xmlns:xlink="http://www.w3.org/1999/xlink" x="0px" y="0px"
	 width="110px" height="50px" viewBox="0 0 110 50" enable-background="new 0 0 110 50" xml:space="preserve">
<g>
	<g>
		<g>
			<path fill="#FFFFFF" d="M65.6,22.2h-3.4v-2.1H47.9v2.1h-3.4l0-0.4c0-0.1,0.3-11.7-3-15.2l-0.6-0.7h8.8l-0.4,0.6
				c-0.4,0.6-1.3,2.4-0.9,3.3c0.2,0.4,0.8,0.6,1.6,0.6c1.1,0,1.7-0.4,1.9-1.1c0.4-1.4-0.7-3.5-1.4-3.9l-0.5-0.3L55,1.3l4.9,3.8
				l-0.5,0.3c-0.7,0.4-1.8,2.6-1.4,3.9c0.2,0.8,0.9,1.1,1.9,1.1c0.8,0,1.4-0.2,1.6-0.6c0.5-0.9-0.4-2.7-0.8-3.3l-0.4-0.6h8.8
				l-0.6,0.7c-3.3,3.4-3,15.1-3,15.2L65.6,22.2z M63,21.4h1.8c0-2,0-10.9,2.7-14.7h-5.7c0.5,0.9,1.1,2.4,0.5,3.5
				c-0.4,0.7-1.1,1-2.3,1c-1.8,0-2.5-0.9-2.7-1.7C57,8.1,57.8,6,58.7,5.1L55,2.3l-3.6,2.8c0.9,0.9,1.7,3,1.3,4.4
				c-0.2,0.8-0.9,1.7-2.7,1.7c-1.1,0-1.9-0.3-2.3-1c-0.6-1.1,0.1-2.6,0.5-3.5h-5.7c2.7,3.8,2.7,12.7,2.7,14.7h1.8v-2.1H63V21.4z"/>
		</g>
	</g>
	<g>
		<rect x="48.9" y="21.4" fill="#FFFFFF" width="12.4" height="0.8"/>
	</g>
	<g>
		<path fill="#FFFFFF" d="M33.8,25.6h0.9v9.8h-0.9V25.6z"/>
		<path fill="#FFFFFF" d="M37.4,25.6h1.5l2.4,8.7h0l2.4-8.7h1.4v9.8h-0.9v-9h0l-2.6,9h-0.8l-2.6-9h0v9h-0.9V25.6z"/>
		<path fill="#FFFFFF" d="M47.8,25.6h2.7c1.9,0,2.7,1.1,2.7,2.8c0,1.5-0.8,2.8-3,2.8h-1.5v4.3h-0.9V25.6z M48.6,30.4h1.5
			c1.2,0,2.1-0.5,2.1-2c0-1.5-0.7-2-2.1-2h-1.5V30.4z"/>
		<path fill="#FFFFFF" d="M55.4,25.6h4.9v0.7h-4v3.6H60v0.7h-3.7v4h4.1v0.7h-5V25.6z"/>
		<path fill="#FFFFFF" d="M62.6,25.6h2.9c1.6,0,2.6,0.9,2.6,2.5c0,1.2-0.5,2.2-1.8,2.5v0c1.2,0.1,1.6,0.8,1.7,2.3l0,1.1
			c0,0.5,0.1,1.1,0.4,1.4h-1c-0.2-0.3-0.2-0.9-0.3-1.4l0-0.8c-0.1-1.7-0.4-2.3-2-2.3h-1.7v4.5h-0.9V25.6z M63.5,30.2H65
			c1.4,0,2.2-0.6,2.2-1.9c0-1.2-0.5-1.9-2.1-1.9h-1.6V30.2z"/>
		<path fill="#FFFFFF" d="M72.6,25.6h1.1l2.9,9.8h-0.9l-0.8-2.9h-3.4l-0.8,2.9h-0.9L72.6,25.6z M74.7,31.8l-1.5-5.5h0l-1.5,5.5H74.7
			z"/>
		<path fill="#FFFFFF" d="M5,38.6h0.9v9.8H5V38.6z"/>
		<path fill="#FFFFFF" d="M10.4,39.4H7.8v-0.7h6v0.7h-2.5v9.1h-0.9V39.4z"/>
		<path fill="#FFFFFF" d="M17,38.6h1.1l2.9,9.8h-0.9l-0.8-2.9h-3.4l-0.8,2.9h-0.9L17,38.6z M19.1,44.9l-1.5-5.5h0l-1.5,5.5H19.1z"/>
		<path fill="#FFFFFF" d="M22.8,38.6h0.9v9.1h4.1v0.7h-5V38.6z"/>
		<path fill="#FFFFFF" d="M29.8,38.6h0.9v9.8h-0.9V38.6z"/>
		<path fill="#FFFFFF" d="M35.5,38.6h1.1l2.9,9.8h-0.9l-0.8-2.9h-3.4l-0.8,2.9h-0.9L35.5,38.6z M37.5,44.9L36,39.3h0l-1.5,5.5H37.5z
			"/>
		<path fill="#FFFFFF" d="M41.3,38.6h1.2l3.8,8.6h0v-8.6h0.9v9.8h-1.2l-3.8-8.6h0v8.6h-0.9V38.6z"/>
		<path fill="#FFFFFF" d="M54,38.6h4.9v0.7h-4V43h3.7v0.7h-3.7v4.8H54V38.6z"/>
		<path fill="#FFFFFF" d="M61,38.6h0.9v9.8H61V38.6z"/>
		<path fill="#FFFFFF" d="M64.5,38.6h1.2l3.8,8.6h0v-8.6h0.9v9.8h-1.2l-3.8-8.6h0v8.6h-0.9V38.6z"/>
		<path fill="#FFFFFF" d="M73,38.6h0.9v9.8H73V38.6z"/>
		<path fill="#FFFFFF" d="M80.9,41.2c0-1.2-0.6-1.9-1.8-1.9c-1.2,0-1.9,0.8-1.9,1.8c0,2.9,4.8,1.3,4.8,4.8c0,1.9-1.2,2.9-3,2.9
			c-1.8,0-2.9-1-2.9-2.9v-0.3H77v0.4c0,1.3,0.7,2.1,2,2.1c1.2,0,2.1-0.6,2.1-2c0-2.9-4.8-1.3-4.8-4.8c0-1.5,1-2.6,2.7-2.6
			c1.8,0,2.7,0.9,2.7,2.7H80.9z"/>
		<path fill="#FFFFFF" d="M88.9,43.6h-3.8v4.9h-0.9v-9.8h0.9v4.2h3.8v-4.2h0.9v9.8h-0.9V43.6z"/>
		<path fill="#FFFFFF" d="M92.4,38.6h4.9v0.7h-4V43H97v0.7h-3.7v4h4.1v0.7h-5V38.6z"/>
		<path fill="#FFFFFF" d="M103.9,41.2c0-1.2-0.6-1.9-1.8-1.9c-1.2,0-1.9,0.8-1.9,1.8c0,2.9,4.8,1.3,4.8,4.8c0,1.9-1.2,2.9-3,2.9
			c-1.8,0-2.9-1-2.9-2.9v-0.3h0.9v0.4c0,1.3,0.7,2.1,2,2.1c1.2,0,2.1-0.6,2.1-2c0-2.9-4.8-1.3-4.8-4.8c0-1.5,1-2.6,2.7-2.6
			c1.8,0,2.7,0.9,2.7,2.7H103.9z"/>
	</g>
</g>
</svg>
