<?xml version="1.0" encoding="utf-8"?>
<!-- Generator: Adobe Illustrator 16.0.0, SVG Export Plug-In . SVG Version: 6.00 Build 0)  -->
<!DOCTYPE svg PUBLIC "-//W3C//DTD SVG 1.1//EN" "http://www.w3.org/Graphics/SVG/1.1/DTD/svg11.dtd">
<svg version="1.1" id="Layer_1" xmlns="http://www.w3.org/2000/svg" xmlns:xlink="http://www.w3.org/1999/xlink" x="0px" y="0px"
	 width="48px" height="20px" viewBox="0 0 48 20" enable-background="new 0 0 48 20" xml:space="preserve">
<g>
	<polygon fill="#FFFFFF" points="12.3,18.1 10.4,18.1 8.1,14.6 5.9,18.1 4,18.1 7.3,13.5 4.2,9.2 6.2,9.2 8.1,12.3 10.1,9.2 
		12.1,9.2 9,13.4 	"/>
	<path fill="#FFFFFF" d="M18.3,17.1c-0.8,0.7-1.8,1.1-3.1,1.1c-0.9,0-1.6-0.2-2.2-0.7c-0.6-0.5-0.9-1.1-0.9-1.8
		c0-2.1,1.8-3.1,5.4-3.1h0.8c0-0.6,0-1.1-0.1-1.4c-0.1-0.3-0.3-0.5-0.6-0.7c-0.3-0.2-0.8-0.3-1.5-0.3c-1.4,0-2.1,0.5-2.2,1.5h-1.6
		C12.5,9.9,13.8,9,16.2,9c1.1,0,2,0.2,2.7,0.7c0.6,0.4,1,1.3,1,2.7v5.7h-1.6V17.1z M18.3,15.7v-2h-1.1c-2.3,0-3.4,0.6-3.4,1.9
		c0,0.4,0.2,0.8,0.5,1c0.3,0.2,0.8,0.4,1.4,0.4c0.5,0,1-0.1,1.5-0.3C17.6,16.4,18,16.1,18.3,15.7"/>
	<path fill="#FFFFFF" d="M22.8,10.3C23.6,9.4,24.5,9,25.5,9c2,0,3,1.1,3,3.3v5.8h-1.6v-5.7c0-0.7-0.1-1.2-0.4-1.6
		c-0.3-0.3-0.7-0.5-1.3-0.5c-0.8,0-1.6,0.5-2.4,1.4v6.4h-1.6V9.2h1.6V10.3z"/>
	<path fill="#FFFFFF" d="M35.4,17c-0.7,0.8-1.5,1.3-2.5,1.3c-1.2,0-2.1-0.4-2.7-1.2c-0.6-0.8-1-1.9-1-3.3c0-1.4,0.4-2.6,1.1-3.4
		C31,9.4,31.9,9,33,9c1,0,1.8,0.3,2.4,0.9V5.8H37v12.3h-1.6V17z M35.4,15.5v-4.2c-0.7-0.7-1.5-1.1-2.3-1.1c-0.7,0-1.2,0.3-1.6,0.9
		c-0.4,0.6-0.6,1.4-0.6,2.6c0,1.1,0.2,1.9,0.6,2.5c0.4,0.6,0.9,0.8,1.6,0.8C33.9,17,34.7,16.5,35.4,15.5"/>
	<path fill="#FFFFFF" d="M44,17.1c-0.8,0.7-1.8,1.1-3.1,1.1c-0.9,0-1.6-0.2-2.2-0.7c-0.6-0.5-0.9-1.1-0.9-1.8c0-2.1,1.8-3.1,5.4-3.1
		H44c0-0.6,0-1.1-0.1-1.4c-0.1-0.3-0.3-0.5-0.6-0.7c-0.3-0.2-0.8-0.3-1.5-0.3c-1.4,0-2.1,0.5-2.2,1.5h-1.6C38.3,9.9,39.5,9,42,9
		c1.1,0,2,0.2,2.7,0.7c0.6,0.4,1,1.3,1,2.7v5.7H44V17.1z M44,15.7v-2h-1.1c-2.3,0-3.4,0.6-3.4,1.9c0,0.4,0.2,0.8,0.5,1
		c0.3,0.2,0.8,0.4,1.4,0.4c0.5,0,1-0.1,1.5-0.3C43.4,16.4,43.7,16.1,44,15.7"/>
	<path fill="#80A7CE" d="M2.4,8.3c0,0,6.9-5,12.5-5s5.6,2.9,11.8,2.9c0,0,3.6,0,8-4.4c0,0-3.9,4.8-8.8,4.8c-4.9,0-6.1-2.7-10.9-2.7
		S4,7.3,2.4,8.3"/>
</g>
</svg>
