<svg xmlns="http://www.w3.org/2000/svg" width="48" height="20" viewBox="0 0 48 20"><path fill="#FFF" d="M12.3 18.1h-1.9l-2.3-3.5-2.2 3.5H4l3.3-4.6-3.1-4.3h2l1.9 3.1 2-3.1h2L9 13.4"/><path fill="#FFF" d="M18.3 17.1c-.8.7-1.8 1.1-3.1 1.1-.9 0-1.6-.2-2.2-.7-.6-.5-.9-1.1-.9-1.8 0-2.1 1.8-3.1 5.4-3.1h.8c0-.6 0-1.1-.1-1.4-.1-.3-.3-.5-.6-.7-.3-.2-.8-.3-1.5-.3-1.4 0-2.1.5-2.2 1.5h-1.6c.2-1.8 1.5-2.7 3.9-2.7 1.1 0 2 .2 2.7.7.6.4 1 1.3 1 2.7v5.7h-1.6v-1zm0-1.4v-2h-1.1c-2.3 0-3.4.6-3.4 1.9 0 .4.2.8.5 1 .3.2.8.4 1.4.4.5 0 1-.1 1.5-.3.4-.3.8-.6 1.1-1m4.5-5.4c.8-.9 1.7-1.3 2.7-1.3 2 0 3 1.1 3 3.3v5.8h-1.6v-5.7c0-.7-.1-1.2-.4-1.6-.3-.3-.7-.5-1.3-.5-.8 0-1.6.5-2.4 1.4v6.4h-1.6V9.2h1.6v1.1zM35.4 17c-.7.8-1.5 1.3-2.5 1.3-1.2 0-2.1-.4-2.7-1.2-.6-.8-1-1.9-1-3.3s.4-2.6 1.1-3.4C31 9.4 31.9 9 33 9c1 0 1.8.3 2.4.9V5.8H37v12.3h-1.6V17zm0-1.5v-4.2c-.7-.7-1.5-1.1-2.3-1.1-.7 0-1.2.3-1.6.9-.4.6-.6 1.4-.6 2.6 0 1.1.2 1.9.6 2.5.4.6.9.8 1.6.8.8 0 1.6-.5 2.3-1.5m8.6 1.6c-.8.7-1.8 1.1-3.1 1.1-.9 0-1.6-.2-2.2-.7-.6-.5-.9-1.1-.9-1.8 0-2.1 1.8-3.1 5.4-3.1h.8c0-.6 0-1.1-.1-1.4-.1-.3-.3-.5-.6-.7-.3-.2-.8-.3-1.5-.3-1.4 0-2.1.5-2.2 1.5H38c.3-1.8 1.5-2.7 4-2.7 1.1 0 2 .2 2.7.7.6.4 1 1.3 1 2.7v5.7H44v-1zm0-1.4v-2h-1.1c-2.3 0-3.4.6-3.4 1.9 0 .4.2.8.5 1 .3.2.8.4 1.4.4.5 0 1-.1 1.5-.3.5-.3.8-.6 1.1-1"/><path fill="#80A7CE" d="M2.4 8.3s6.9-5 12.5-5 5.6 2.9 11.8 2.9c0 0 3.6 0 8-4.4 0 0-3.9 4.8-8.8 4.8S19.8 3.9 15 3.9 4 7.3 2.4 8.3"/></svg>