<?xml version="1.0" encoding="utf-8"?>
<!-- Generator: Adobe Illustrator 16.0.0, SVG Export Plug-In . SVG Version: 6.00 Build 0)  -->
<!DOCTYPE svg PUBLIC "-//W3C//DTD SVG 1.1//EN" "http://www.w3.org/Graphics/SVG/1.1/DTD/svg11.dtd">
<svg version="1.1" id="Layer_1" xmlns="http://www.w3.org/2000/svg" xmlns:xlink="http://www.w3.org/1999/xlink" x="0px" y="0px"
	 width="156px" height="76px" viewBox="0 0 156 76" enable-background="new 0 0 156 76" xml:space="preserve">
<g>
	<g>
		<g>
			<path fill="#FFFFFF" d="M93.7,33.8h-5v-3H67.4v3h-5l0-0.6c0-0.2,0.4-17.4-4.4-22.5l-0.9-1h13l-0.6,0.9c-0.6,0.9-2,3.5-1.3,4.9
				c0.3,0.6,1.1,0.9,2.4,0.9c1.6,0,2.5-0.5,2.9-1.7c0.6-2-1-5.2-2-5.8l-0.7-0.4L78.1,3l7.3,5.6L84.6,9c-1,0.6-2.6,3.8-2,5.8
				c0.3,1.1,1.3,1.7,2.9,1.7c1.2,0,2-0.3,2.4-0.9c0.7-1.3-0.7-4-1.3-4.9L86,9.8h13l-0.9,1c-4.9,5.1-4.4,22.3-4.4,22.5L93.7,33.8z
				 M89.8,32.7h2.7c0-3,0-16.1,4-21.7h-8.4c0.7,1.3,1.6,3.6,0.8,5.2c-0.5,1-1.7,1.5-3.4,1.5c-2.7,0-3.6-1.3-4-2.5
				c-0.6-2.1,0.6-5.2,1.9-6.6l-5.4-4.1l-5.4,4.1c1.3,1.4,2.5,4.4,1.9,6.6c-0.3,1.1-1.3,2.5-4,2.5c-1.7,0-2.8-0.5-3.4-1.5
				c-0.9-1.6,0.1-3.9,0.8-5.2h-8.4c3.9,5.7,4,18.8,4,21.7h2.7v-3h23.6V32.7z"/>
		</g>
	</g>
	<g>
		<rect x="68.9" y="32.7" fill="#FFFFFF" width="18.3" height="1.1"/>
	</g>
	<g>
		<path fill="#FFFFFF" d="M46.6,38.9h1.3v14.6h-1.3V38.9z"/>
		<path fill="#FFFFFF" d="M51.9,38.9h2.3l3.5,12.9h0l3.5-12.9h2.1v14.6h-1.3V40.1h0l-3.8,13.3H57l-3.8-13.3h0v13.3h-1.3V38.9z"/>
		<path fill="#FFFFFF" d="M67.3,38.9h3.9c2.8,0,4,1.7,4,4.1c0,2.2-1.1,4.1-4.4,4.1h-2.2v6.3h-1.3V38.9z M68.6,46.1h2.2
			c1.7,0,3.1-0.8,3.1-3c0-2.2-1.1-3-3.1-3h-2.2V46.1z"/>
		<path fill="#FFFFFF" d="M78.6,38.9h7.2V40h-5.9v5.3h5.5v1.1h-5.5v6H86v1.1h-7.4V38.9z"/>
		<path fill="#FFFFFF" d="M89.2,38.9h4.3c2.4,0,3.8,1.4,3.8,3.7c0,1.8-0.7,3.3-2.6,3.7v0c1.8,0.2,2.4,1.2,2.5,3.4l0,1.6
			c0,0.8,0.1,1.6,0.6,2.1h-1.5c-0.3-0.5-0.4-1.3-0.4-2l0-1.2c-0.1-2.6-0.6-3.4-2.9-3.4h-2.5v6.7h-1.3V38.9z M90.5,45.7h2.2
			c2.1,0,3.3-0.9,3.3-2.9c0-1.8-0.8-2.9-3.1-2.9h-2.4V45.7z"/>
		<path fill="#FFFFFF" d="M104.1,38.9h1.6l4.3,14.6h-1.4l-1.2-4.2h-5.1l-1.2,4.2h-1.4L104.1,38.9z M107.2,48.1l-2.2-8.2h0l-2.2,8.2
			H107.2z"/>
		<path fill="#FFFFFF" d="M4,58.2h1.3v14.6H4V58.2z"/>
		<path fill="#FFFFFF" d="M12,59.3H8.2v-1.1H17v1.1h-3.8v13.5H12V59.3z"/>
		<path fill="#FFFFFF" d="M21.8,58.2h1.6l4.3,14.6h-1.4l-1.2-4.2h-5.1l-1.2,4.2h-1.4L21.8,58.2z M24.9,67.4l-2.2-8.2h0l-2.2,8.2
			H24.9z"/>
		<path fill="#FFFFFF" d="M30.4,58.2h1.3v13.5h6v1.1h-7.3V58.2z"/>
		<path fill="#FFFFFF" d="M40.7,58.2H42v14.6h-1.3V58.2z"/>
		<path fill="#FFFFFF" d="M49.1,58.2h1.6L55,72.8h-1.4l-1.2-4.2h-5.1l-1.2,4.2h-1.4L49.1,58.2z M52.2,67.4l-2.2-8.2h0l-2.2,8.2H52.2
			z"/>
		<path fill="#FFFFFF" d="M57.7,58.2h1.8L65,70.9h0V58.2h1.3v14.6h-1.8L59,60.1h0v12.7h-1.3V58.2z"/>
		<path fill="#FFFFFF" d="M76.6,58.2h7.2v1.1h-5.9v5.3h5.5v1.1h-5.5v7.1h-1.3V58.2z"/>
		<path fill="#FFFFFF" d="M86.9,58.2h1.3v14.6h-1.3V58.2z"/>
		<path fill="#FFFFFF" d="M92.1,58.2h1.8l5.6,12.7h0V58.2h1.3v14.6H99l-5.6-12.7h0v12.7h-1.3V58.2z"/>
		<path fill="#FFFFFF" d="M104.7,58.2h1.3v14.6h-1.3V58.2z"/>
		<path fill="#FFFFFF" d="M116.3,61.9c0-1.8-0.8-2.9-2.6-2.9s-2.8,1.2-2.8,2.6c0,4.3,7.1,2,7.1,7.1c0,2.8-1.8,4.3-4.4,4.3
			c-2.7,0-4.2-1.5-4.2-4.3v-0.4h1.3v0.6c0,1.9,1,3.1,2.9,3.1c1.8,0,3.1-0.9,3.1-3c0-4.3-7.1-1.9-7.1-7.1c0-2.3,1.5-3.9,4-3.9
			c2.7,0,4,1.4,4,4H116.3z"/>
		<path fill="#FFFFFF" d="M128.2,65.5h-5.7v7.3h-1.3V58.2h1.3v6.2h5.7v-6.2h1.3v14.6h-1.3V65.5z"/>
		<path fill="#FFFFFF" d="M133.3,58.2h7.2v1.1h-5.9v5.3h5.5v1.1h-5.5v6h6.1v1.1h-7.4V58.2z"/>
		<path fill="#FFFFFF" d="M150.3,61.9c0-1.8-0.8-2.9-2.6-2.9c-1.8,0-2.8,1.2-2.8,2.6c0,4.3,7.1,2,7.1,7.1c0,2.8-1.8,4.3-4.4,4.3
			c-2.7,0-4.2-1.5-4.2-4.3v-0.4h1.3v0.6c0,1.9,1,3.1,2.9,3.1c1.8,0,3.1-0.9,3.1-3c0-4.3-7.1-1.9-7.1-7.1c0-2.3,1.5-3.9,4-3.9
			c2.7,0,4,1.4,4,4H150.3z"/>
	</g>
</g>
</svg>
